# xmcd CD database file
#
# Track frame offsets:
#	150
#	12796
#	26620
#	35658
#	52808
#	64662
#	78024
#	96859
#	108962
#	119176
#	139267
#
# Disc length: 1888 seconds
#
# Revision: 4
# Processed by: cddbd v1.5.2PL0 Copyright (c) Steve Scherf et al.
# Submitted via: CDex 1.95
#
DISCID=8a075e0b
DTITLE=Justin Townes Earle - Harlem River Blues
DYEAR=2010
DGENRE=Americana
TTITLE0=Harlem River Blues
TTITLE1=One More Night in Brooklyn
TTITLE2=Move Over Mama
TTITLE3=Workin' for the MTA
TTITLE4=Wanderin'
TTITLE5=Slippin' and Slidin'
TTITLE6=Christchurch Woman
TTITLE7=Learning to Cry
TTITLE8=Ain't Waitin'
TTITLE9=Rogers Park
TTITLE10=Harlem River Blues Reprise
EXTD=YEAR: 2010
EXTT0=
EXTT1=
EXTT2=
EXTT3=
EXTT4=
EXTT5=
EXTT6=
EXTT7=
EXTT8=
EXTT9=
EXTT10=
PLAYORDER=
